<?xml version="1.0" encoding="UTF-8" standalone="no"?>
<!DOCTYPE svg PUBLIC "-//W3C//DTD SVG 1.1//EN" "http://www.w3.org/Graphics/SVG/1.1/DTD/svg11.dtd">
<svg width="100%" height="100%" viewBox="0 0 512 512" version="1.1" xmlns="http://www.w3.org/2000/svg" xmlns:xlink="http://www.w3.org/1999/xlink" xml:space="preserve" xmlns:serif="http://www.serif.com/" style="fill-rule:evenodd;clip-rule:evenodd;stroke-linejoin:round;stroke-miterlimit:2;">
    <g id="Logo" transform="matrix(2.056225,0,0,2.056225,-357.783133,-252.915663)">
        <g transform="matrix(0.427835,0,0,0.427835,169.293814,116.582474)">
            <path d="M593,51.375L593,560.625C593,580.701 576.701,597 556.625,597L47.375,597C27.299,597 11,580.701 11,560.625L11,51.375C11,31.299 27.299,15 47.375,15L556.625,15C576.701,15 593,31.299 593,51.375Z" style="fill:rgb(33,16,2);"/>
        </g>
        <g transform="matrix(0.300091,0,0,0.300091,148.942642,125.47191)">
            <path d="M480.43,409.571C482.804,411.34 496.854,411.063 497.503,411.065C536.617,411.232 538.336,410.803 538.813,413.41C542.251,432.23 542.779,478.152 605.501,489.493C622.431,492.554 681.998,483.868 686.819,416.53C687.095,412.676 686.833,411.358 691.5,411.353C704.941,411.338 857.598,411.166 859.518,411.403C861.799,411.685 861.517,418.289 861.115,439.483C861.11,439.758 860.948,443.156 860.929,443.529C859.992,462.066 857.175,485.869 855.291,487.198C851.771,489.68 768.523,477.184 765.595,479.64C763.626,481.293 742.297,540.583 740.283,545.41C737.143,552.936 734.552,553.951 740.013,559.973C754.633,576.093 798.524,618.653 798.191,622.462C798.001,624.623 785.832,643.378 759.754,669.751C755.457,674.096 707.502,722.593 699.788,717.078C696.684,714.859 646.141,649.658 643.627,649.007C641.612,648.486 627.08,656.463 602.71,666.971C599.8,668.227 568.688,681.642 566.854,683.83C566.191,684.621 566.47,684.692 566.147,689.493C565.76,689.862 565.903,694.678 565.928,699.505C566.154,742.37 570.023,773.514 565.634,774.903C564.047,775.405 547.482,776.7 542.518,777.614C537.141,778.605 523.24,778.957 520.997,778.995C520.836,778.913 514.382,779.309 512.5,779.263C487.496,778.649 486.645,779.034 484.496,778.935C459.389,777.777 459.525,777.091 434.549,775.058C427.46,774.481 428.973,770.487 429.41,762.494C429.904,753.456 436.265,699.061 436.909,693.551C437.75,686.362 440.307,684.145 433.472,681.57C428.83,679.821 389.678,665.071 375.397,659.817C356.172,652.743 355.705,651.926 353.727,653.763C345.294,661.595 295.121,720.004 292.493,720.469C289.819,720.943 289.753,720.216 267.506,697.495C232.556,661.799 194.714,625.947 194.933,622.535C195.074,620.349 202.326,614.273 216.41,602.393C235.578,586.223 266.592,564.428 265.713,561.45C264.321,556.742 263.173,557.274 240.81,505.362C231.888,484.651 230.873,481.14 227.465,480.89C215.903,480.039 143.406,487.805 140.959,485.093C137.639,481.414 133.219,413.222 136.531,411.567C136.815,411.425 136.827,411.317 222.5,411.23C299.79,411.152 300.706,411.196 307.498,411.521C314.895,411.875 302.891,441.785 336.913,473.052C366.024,499.805 422.384,493.798 445.086,457.249C465.905,423.732 407.109,328.997 399.089,271.578C398.442,266.949 381.703,272.626 360.589,256.389C344.028,243.654 334.306,219.37 320.518,184.493C317.951,177.998 322.492,179.413 329.46,179.96C371.857,183.285 383.697,217.424 396.841,238.199C402.049,246.431 404.417,195.845 416.933,165.678C466.389,46.47 568.273,63.725 620.454,57.198C644.542,54.186 661.914,53.574 682.917,34.99C689.78,28.917 685.167,52.432 678.1,66.3C632.194,156.379 542.043,161.88 518.51,167.547C494.84,173.247 449.898,171.738 437.246,213.424C429.752,238.116 431.337,273.678 433.497,273.651C437.088,273.605 446.762,238.734 490.466,224.402C502.272,220.53 526.095,220.521 527.076,222.636C527.472,223.49 528.529,257.279 517.05,279.264C493.703,323.977 438.229,298.977 441.171,308.573C443.249,315.353 444.075,314.97 472.98,391.319C479.452,408.415 479.165,408.628 480.43,409.571Z" style="fill:rgb(90,165,121);"/>
        </g>
    </g>
</svg>
